<svg xmlns="http://www.w3.org/2000/svg" viewBox="0 0 64 64" id="article">
  <path fill="#2b2e63" d="M56.47 7.24H7.53C3.38 7.24 0 10.63 0 14.77v34.45c0 4.15 3.38 7.53 7.53 7.53h48.94c4.16 0 7.53-3.38 7.53-7.53V14.77c0-4.14-3.37-7.53-7.53-7.53zm3.77 41.98a3.77 3.77 0 0 1-3.77 3.76H7.53c-2.07 0-3.76-1.69-3.76-3.76V14.77A3.77 3.77 0 0 1 7.53 11h48.94c2.08 0 3.77 1.69 3.77 3.77v34.45z"></path>
  <path fill="#b7dae7" d="M56.47 11.01H7.53a3.77 3.77 0 0 0-3.76 3.77v34.45c0 2.07 1.69 3.76 3.76 3.76h48.94a3.77 3.77 0 0 0 3.77-3.76V14.77c0-2.08-1.69-3.76-3.77-3.76zM32.11 45.1c0 1.04-.84 1.88-1.88 1.88H10.37c-1.04 0-1.89-.84-1.89-1.88V18.89c0-1.04.85-1.88 1.89-1.88h19.86c1.04 0 1.88.84 1.88 1.88V45.1zm21.53 1.89H38.36c-1.04 0-1.89-.84-1.89-1.88s.85-1.88 1.89-1.88h15.28c1.04 0 1.88.84 1.88 1.88s-.84 1.88-1.88 1.88zm0-8.75H38.36c-1.04 0-1.89-.84-1.89-1.88s.85-1.88 1.89-1.88h15.28c1.04 0 1.88.84 1.88 1.88s-.84 1.88-1.88 1.88zm0-8.73H38.36c-1.04 0-1.89-.85-1.89-1.89s.85-1.88 1.89-1.88h15.28c1.04 0 1.88.84 1.88 1.88s-.84 1.89-1.88 1.89zm0-8.74H38.36c-1.04 0-1.89-.85-1.89-1.89S37.32 17 38.36 17h15.28c1.04 0 1.88.84 1.88 1.88s-.84 1.89-1.88 1.89z"></path>
  <path fill="#2b2e63" d="M30.23 17H10.37c-1.04 0-1.89.84-1.89 1.88V45.1c0 1.04.85 1.88 1.89 1.88h19.86c1.04 0 1.88-.84 1.88-1.88V18.89c0-1.05-.84-1.89-1.88-1.89zm-1.88 26.22h-16.1V20.77h16.1v22.45z"></path>
  <path fill="#f16150" d="M12.25 20.77h16.1v22.45h-16.1z"></path>
  <path fill="#2b2e63" d="M55.52 18.89c0 1.04-.84 1.89-1.88 1.89H38.36c-1.04 0-1.89-.85-1.89-1.89s.85-1.88 1.89-1.88h15.28c1.04-.01 1.88.83 1.88 1.88zm0 8.74c0 1.04-.84 1.89-1.88 1.89H38.36c-1.04 0-1.89-.85-1.89-1.89s.85-1.88 1.89-1.88h15.28c1.04 0 1.88.83 1.88 1.88zm0 8.74c0 1.04-.84 1.88-1.88 1.88H38.36c-1.04 0-1.89-.84-1.89-1.88s.85-1.88 1.89-1.88h15.28c1.04 0 1.88.84 1.88 1.88zm0 8.73c0 1.04-.84 1.88-1.88 1.88H38.36c-1.04 0-1.89-.84-1.89-1.88s.85-1.88 1.89-1.88h15.28c1.04 0 1.88.84 1.88 1.88z"></path>
</svg>
