<svg xmlns="http://www.w3.org/2000/svg" viewBox="0 0 64 64" id="balloons">
  <path fill="#e6f3ff" d="M54.30713,17.95863c0,8.28427-8.28005,19-15,19s-15-10.71573-15-19S31.02286,2.95863,39.30713,2.95863s15,6.71573,15,15Z"></path>
  <path fill="#21257c" d="M39.30713,37.95863c-7.17773,0-16-11.02832-16-20,.87887-21.22562,31.1239-21.22046,32.00003,.00012-.00003,8.97156-8.8223,19.99988-16.00003,19.99988Zm0-34c-7.71973,0-14,6.28027-14,14,0,7.73828,7.98145,18,14,18s14-10.26172,14-18c0-7.71973-6.28027-14-14-14Z"></path>
  <path fill="#4aa5ff" d="M49.87793 21.95863c-.64633.00892-1.14454-.63721-.96581-1.26075.2622-.97167.39501-1.89355.39501-2.73925 0-2.31641-.81396-4.57617-2.2915-6.3623-.8282-1.00794.70133-2.27969 1.54105-1.27534 2.50264 3.03711 3.37207 7.06721 2.28608 10.89837-.1201.44532-.52391.73927-.96483.73927zM42.30713 41.95863h-6.00001c-3.9555-.09986-3.95686-5.90006.00009-6-.00009 0 5.99992 0 5.99992 0 3.95495.09965 3.95733 5.89996 0 6z"></path>
  <path fill="#21257c" d="M42.30713,42.95863h-6c-2.20557,0-4-1.79395-4-4s1.79443-4,4-4h6c5.2846,.16702,5.28651,7.83263,0,8Zm-6-6c-2.63548,.06852-2.63816,3.93087,.00006,4-.00006,0,5.99994,0,5.99994,0,1.10303,0,2-.89746,2-2s-.89697-2-2-2h-6Z"></path>
  <path fill="#21257c" d="M39.30713,55.95863c-.55225,0-1-.44727-1-1v-13c0-.55273,.44775-1,1-1s1,.44727,1,1v13c0,.55273-.44775,1-1,1Z"></path>
  <path fill="#4aa5ff" d="M47.30713,23.95863c.02524-1.31398,1.97479-1.31317,2,0-.02556,1.31405-1.97511,1.3131-2,0Z"></path>
  <path fill="#21257c" d="M54.98828 9.80922c-.90711.03404-1.3688-1.23033-.62397-1.78126-.00005 0 2.31928-1.85058 2.31928-1.85058 1.02537-.81204 2.26605.74322 1.24702 1.56254.00005-.00004-2.31929 1.85055-2.31929 1.85055-.18408.14746-.4043.21875-.62305.21875zM52.30615 6.95863c-.72091.01568-1.23575-.80454-.89353-1.44727-.00002 0 .99998-1.99999.99998-1.99999.60701-1.16478 2.35756-.29158 1.78904.89457.00002-.00004-.99998 1.99996-.99998 1.99996-.17529.35059-.52832.55273-.89551.55273zM58.30713 13.95863h-2c-1.31388-.02182-1.31477-1.97812.00004-2-.00004 0 1.99996 0 1.99996 0 1.31388.02182 1.31477 1.97812 0 2zM44.70713 32.29197c.54527.21327 1.51581.68059 2.4 1.66667 1.15977 1.29342 1.49311 2.72339 1.6 3.33333.10689-.60994.44023-2.03991 1.6-3.33333.88419-.98607 1.85473-1.4534 2.4-1.66667-.54527-.21327-1.51581-.68059-2.4-1.66667-1.15977-1.29342-1.49311-2.72339-1.6-3.33333-.10689.60994-.44023 2.03991-1.6 3.33333-.88419.98607-1.85473 1.4534-2.4 1.66667z"></path>
  <path fill="#4aa5ff" d="M36.30713,23.95863c0,8.28427-8.28005,19-15,19S6.30713,32.2429,6.30713,23.95863s6.71573-15,15-15,15,6.71573,15,15Z"></path>
  <path fill="#21257c" d="M21.30713,43.95863c-7.17773,0-16-11.02832-16-20,.87887-21.22562,31.1239-21.22046,32.00003,.00012-.00003,8.97156-8.8223,19.99988-16.00003,19.99988Zm0-34c-7.71973,0-14,6.28027-14,14,0,7.73828,7.98145,18,14,18s14-10.26172,14-18c0-7.71973-6.28027-14-14-14Z"></path>
  <path fill="#e6f3ff" d="M31.87793 27.95863c-.64633.00892-1.14454-.63721-.96581-1.26075.2622-.97167.39501-1.89355.39501-2.73925 0-2.31641-.81396-4.57617-2.2915-6.3623-.82813-1.00741.70164-2.28143 1.54105-1.27534 2.50264 3.03711 3.37207 7.06721 2.28608 10.89838-.1201.44532-.52391.73927-.96483.73927zM24.30713 47.95863h-6.00001c-3.9555-.09986-3.95686-5.90006.00009-6-.00009 0 5.99992 0 5.99992 0 3.95495.09965 3.95733 5.89996 0 6z"></path>
  <path fill="#21257c" d="M24.30713,48.95863h-6c-2.20557,0-4-1.79395-4-4s1.79443-4,4-4h6c5.2846,.16702,5.28651,7.83263,0,8Zm-6-6c-2.63548,.06852-2.63816,3.93087,.00006,4-.00006,0,5.99994,0,5.99994,0,1.10303,0,2-.89746,2-2s-.89697-2-2-2h-6Z"></path>
  <path fill="#21257c" d="M21.30713,61.95863c-.55225,0-1-.44727-1-1v-13c0-.55273,.44775-1,1-1s1,.44727,1,1v13c0,.55273-.44775,1-1,1Z"></path>
  <path fill="#e6f3ff" d="M29.30713 29.95863c.02524-1.31398 1.97479-1.31317 2 0-.02556 1.31405-1.97511 1.3131-2 0zM12.30713 15.95863c.54527.21327 1.51581.68059 2.4 1.66667 1.15977 1.29342 1.49311 2.72339 1.6 3.33333.10689-.60994.44023-2.03991 1.6-3.33333.88419-.98607 1.85473-1.4534 2.4-1.66667-.54527-.21327-1.51581-.68059-2.4-1.66667-1.15977-1.29342-1.49311-2.72339-1.6-3.33333-.10689.60994-.44023 2.03991-1.6 3.33333-.88419.98607-1.85473 1.4534-2.4 1.66667z"></path>
  <path fill="#21257c" d="M4.70713,45.29197c.54527,.21327,1.51581,.68059,2.4,1.66667,1.15977,1.29342,1.49311,2.72339,1.6,3.33333,.10689-.60994,.44023-2.03991,1.6-3.33333,.88419-.98607,1.85473-1.4534,2.4-1.66667-.54527-.21327-1.51581-.68059-2.4-1.66667-1.15977-1.29342-1.49311-2.72339-1.6-3.33333-.10689,.60994-.44023,2.03991-1.6,3.33333-.88419,.98607-1.85473,1.4534-2.4,1.66667Z"></path>
</svg>
