<svg xmlns="http://www.w3.org/2000/svg" xml:space="preserve" viewBox="0 0 512 512" id="classification">
  <path d="M501.089 82.619V429.38c0 39.604-32.105 71.709-71.709 71.709H82.619c-39.604 0-71.709-32.105-71.709-71.709V82.619c0-39.604 32.105-71.709 71.709-71.709H429.38c39.604 0 71.709 32.105 71.709 71.709" style="fill:#f1f0fe"></path>
  <path d="M428.639 108.943v93.772c0 10.71-8.682 19.392-19.392 19.392h-93.772c-10.71 0-19.392-8.682-19.392-19.392v-93.772c0-10.71 8.682-19.392 19.392-19.392h93.772c10.71 0 19.392 8.682 19.392 19.392" style="fill:#f9d964"></path>
  <path d="M215.915 108.943v93.772c0 10.71-8.682 19.392-19.392 19.392h-93.772c-10.71 0-19.392-8.682-19.392-19.392v-93.772c0-10.71 8.682-19.392 19.392-19.392h93.772c10.711 0 19.392 8.682 19.392 19.392" style="fill:#f68c3d"></path>
  <path d="M428.639 309.283v93.772c0 10.71-8.682 19.392-19.392 19.392h-93.772c-10.71 0-19.392-8.682-19.392-19.392v-93.772c0-10.71 8.682-19.392 19.392-19.392h93.772c10.71.001 19.392 8.683 19.392 19.392" style="fill:#adabe4"></path>
  <path d="M215.915 309.283v93.772c0 10.71-8.682 19.392-19.392 19.392h-93.772c-10.71 0-19.392-8.682-19.392-19.392v-93.772c0-10.71 8.682-19.392 19.392-19.392h93.772c10.711.001 19.392 8.683 19.392 19.392" style="fill:#90f5f3"></path>
  <path d="M429.379 6.009H82.618c-42.242 0-76.61 34.365-76.61 76.61v346.763c0 42.244 34.368 76.61 76.61 76.61h346.761c42.244 0 76.612-34.365 76.612-76.61V82.618c0-42.244-34.367-76.609-76.612-76.609m66.808 423.373c0 36.835-29.971 66.806-66.808 66.806H82.618c-36.838 0-66.806-29.971-66.806-66.806V82.618c0-36.835 29.968-66.806 66.806-66.806h346.761c36.838 0 66.808 29.971 66.808 66.806z"></path>
  <path d="M409.248 84.648h-93.773c-13.396 0-24.294 10.9-24.294 24.294v93.775c0 13.394 10.897 24.294 24.294 24.294h93.773c13.396 0 24.294-10.9 24.294-24.294v-93.775c-.001-13.394-10.898-24.294-24.294-24.294m14.49 118.069c0 7.989-6.501 14.49-14.49 14.49h-93.773c-7.989 0-14.49-6.501-14.49-14.49v-93.775c0-7.989 6.501-14.49 14.49-14.49h93.773c7.989 0 14.49 6.501 14.49 14.49zM196.523 84.648h-93.771c-13.396 0-24.294 10.9-24.294 24.294v93.775c0 13.394 10.897 24.294 24.294 24.294h93.771c13.396 0 24.294-10.9 24.294-24.294v-93.775c-.001-13.394-10.898-24.294-24.294-24.294m14.49 118.069c0 7.989-6.501 14.49-14.49 14.49h-93.771c-7.989 0-14.49-6.501-14.49-14.49v-93.775c0-7.989 6.501-14.49 14.49-14.49h93.771c7.989 0 14.49 6.501 14.49 14.49zM409.248 284.989h-93.773c-13.396 0-24.294 10.9-24.294 24.294v93.771c0 13.394 10.897 24.294 24.294 24.294h93.773c13.396 0 24.294-10.9 24.294-24.294v-93.771c-.001-13.394-10.898-24.294-24.294-24.294m14.49 118.065c0 7.989-6.501 14.49-14.49 14.49h-93.773c-7.989 0-14.49-6.501-14.49-14.49v-93.771c0-7.989 6.501-14.49 14.49-14.49h93.773c7.989 0 14.49 6.501 14.49 14.49zM196.523 284.989h-93.771c-13.396 0-24.294 10.9-24.294 24.294v93.771c0 13.394 10.897 24.294 24.294 24.294h93.771c13.396 0 24.294-10.9 24.294-24.294v-93.771c-.001-13.394-10.898-24.294-24.294-24.294m14.49 118.065c0 7.989-6.501 14.49-14.49 14.49h-93.771c-7.989 0-14.49-6.501-14.49-14.49v-93.771c0-7.989 6.501-14.49 14.49-14.49h93.771c7.989 0 14.49 6.501 14.49 14.49z"></path>
</svg>
