<svg xmlns="http://www.w3.org/2000/svg" width="100" height="100" viewBox="0 0 100 100" id="heart">
  <g fill="none" fill-rule="evenodd" transform="translate(6 10)">
    <path fill="#F95B8D" d="M42.3181537,77.3850406 C43.2172288,78.0245332 44.684482,78.0247187 45.5739926,77.3850406 C45.5739926,77.3850406 85.4733745,50.1132898 85.4733745,24.433815 C85.4733745,4.75434017 60.7287756,-6.3567135 43.9460732,12.5562012 C27.1633707,-6.3567135 2.41877182,4.75434017 2.41877182,24.433815 C2.41877182,50.1132898 42.3181537,77.3850406 42.3181537,77.3850406 Z"></path>
    <path fill="#FFF" d="M43.9460732,12.5562012 C60.7287756,-6.3567135 85.4733745,4.75434017 85.4733745,24.433815 C85.4733745,26.8697061 85.114362,29.3199245 84.4644469,31.7598339 C79.6520565,16.5208955 58.7158158,9.91174932 43.9460732,26.5562012 C29.1763305,9.91174932 8.24008984,16.5208955 3.43027916,31.7594203 C2.77778438,29.3199245 2.41877182,26.8697061 2.41877182,24.433815 C2.41877182,4.75434017 27.1633707,-6.3567135 43.9460732,12.5562012 Z" opacity=".2"></path>
    <path fill="#C32D5C" fill-rule="nonzero" d="M47.1744485,78.7071373 C47.5484372,78.4434877 47.9809388,78.1334692 48.4670992,77.7788225 C49.8511657,76.7691669 51.3913374,75.6020628 53.0488224,74.2913555 C57.7829305,70.5477139 62.5170015,66.3978517 66.9416412,61.9496904 C78.0588433,50.7733889 85.3823763,39.6341761 87.0969552,29.0120144 C87.3464577,27.466296 87.4733745,25.9396524 87.4733745,24.433815 C87.4733745,14.089764 81.0914485,5.40539045 71.6586904,2.13331681 C61.8334959,-1.2748868 50.805048,1.81334001 42.4501248,11.2287456 C41.7169913,12.054935 41.792428,13.3190161 42.6186175,14.0521496 C43.444807,14.7852831 44.708888,14.7098464 45.4420215,13.8836569 C52.7401681,5.65916357 62.0789547,3.04408196 70.3477841,5.91240726 C78.1934648,8.63394904 83.4733745,15.8187248 83.4733745,24.433815 C83.4733745,25.7221065 83.3641501,27.0359332 83.1480683,28.3746039 C81.5978343,37.9786158 74.68479,48.4934686 64.1057259,59.1287713 C59.8023759,63.4549981 55.1850292,67.5025405 50.5677197,71.15382 C48.9522085,72.4313351 47.4531694,73.5672699 46.1097391,74.5472821 C45.6412756,74.8890192 45.226305,75.1864714 44.8697142,75.437856 C44.6585387,75.5867278 44.5154755,75.6859984 44.4454092,75.7338896 C43.5335037,76.357189 43.2995422,77.6017184 43.9228416,78.513624 C44.546141,79.4255295 45.7906704,79.659491 46.702576,79.0361916 C46.7883666,78.9775526 46.9472764,78.8672861 47.1744485,78.7071373 Z"></path>
    <path fill="#C32D5C" fill-rule="nonzero" d="M16.2334559,2.13331681 C6.80069788,5.40539045 0.418771821,14.089764 0.418771821,24.433815 C0.418771821,25.9396524 0.545688656,27.466296 0.795191177,29.0120144 C2.50977005,39.6341761 9.83330301,50.7733889 20.9505052,61.9496904 C25.3751449,66.3978517 30.1092158,70.5477139 34.843324,74.2913555 C36.500809,75.6020628 38.0409806,76.7691669 39.4250471,77.7788225 C39.9112075,78.1334692 40.3437091,78.4434877 40.7176979,78.7071373 C40.94487,78.8672861 41.1037797,78.9775526 41.1895704,79.0361916 C42.7534774,80.1489929 45.1560045,80.1490872 46.7416767,79.0087752 C47.6384405,78.3638811 47.8426213,77.1141204 47.1977272,76.2173565 C46.5528331,75.3205927 45.3030724,75.1164119 44.4063085,75.761306 C44.2131372,75.9002223 43.6811601,75.9002014 43.4773823,75.7552586 C43.3766708,75.6859984 43.2336077,75.5867278 43.0224321,75.437856 C42.6658413,75.1864714 42.2508707,74.8890192 41.7824072,74.5472821 C40.4389769,73.5672699 38.9399379,72.4313351 37.3244267,71.15382 C32.7071172,67.5025405 28.0897705,63.4549981 23.7864204,59.1287713 C13.2073564,48.4934686 6.29431205,37.9786158 4.74407808,28.3746039 C4.52799622,27.0359332 4.41877182,25.7221065 4.41877182,24.433815 C4.41877182,15.8187248 9.6986815,8.63394904 17.5443622,5.91240726 C25.8131916,3.04408196 35.1519782,5.65916357 42.4501248,13.8836569 C43.1832584,14.7098464 44.4473394,14.7852831 45.2735288,14.0521496 C46.0997183,13.3190161 46.175155,12.054935 45.4420215,11.2287456 C37.0870983,1.81334001 26.0586505,-1.2748868 16.2334559,2.13331681 Z"></path>
  </g>
</svg>
