<svg xmlns="http://www.w3.org/2000/svg" xmlns:xlink="http://www.w3.org/1999/xlink" viewBox="0 0 20 20" id="music">
  <defs>
    <linearGradient id="a">
      <stop offset="0" stop-color="#000092"></stop>
      <stop offset="1" stop-color="#ff00f3"></stop>
    </linearGradient>
    <linearGradient xlink:href="#a" id="b" x1="3" x2="13" y1="9" y2="9" gradientUnits="userSpaceOnUse"></linearGradient>
  </defs>
  <path fill="url(#b)" d="M14.484 2a.5.5 0 0 0-.105.016l-8 2A.5.5 0 0 0 6 4.5v7.781A1.969 1.969 0 0 0 5 12c-1.099 0-2 .901-2 2s.901 2 2 2c1.06 0 1.929-.842 1.988-1.889A.5.5 0 0 0 7 14V8.39l7-1.75v3.641A1.969 1.969 0 0 0 13 10c-1.099 0-2 .901-2 2s.901 2 2 2c1.06 0 1.929-.842 1.988-1.889A.5.5 0 0 0 15 12V6.066a.5.5 0 0 0 0-.132V2.5a.5.5 0 0 0-.516-.5ZM14 3.14v2.47L7 7.36V4.89zM13 11c.558 0 1 .442 1 1s-.442 1-1 1-1-.442-1-1 .442-1 1-1zm-8 2c.558 0 1 .442 1 1s-.442 1-1 1-1-.442-1-1 .442-1 1-1z" color="#000" font-family="sans-serif" font-weight="400" overflow="visible" style="line-height:normal;text-indent:0;text-align:start;text-decoration-line:none;text-decoration-style:solid;text-decoration-color:#000;text-transform:none;block-progression:tb;isolation:auto;mix-blend-mode:normal"></path>
</svg>
