<svg xmlns="http://www.w3.org/2000/svg" viewBox="0 0 512 512" id="search">
  <rect width="497" height="497" x="7.5" y="7.5" fill="#f2f2f2" rx="30"></rect>
  <path fill="#676e87" d="M504.5 37.5v60H7.5v-60a29.998 29.998 0 0 1 30-30h437a29.998 29.998 0 0 1 30 30Z"></path>
  <circle cx="54.627" cy="54.424" r="7.5" fill="#f66"></circle>
  <circle cx="84.627" cy="54.424" r="7.5" fill="#ffe966"></circle>
  <circle cx="114.627" cy="54.424" r="7.5" fill="#63ea86"></circle>
  <path fill="#dedede" d="M279.5 172.498H144.627a7.5 7.5 0 0 1 0-15H279.5a7.5 7.5 0 0 1 0 15zm-5.636 90H144.627a7.5 7.5 0 1 1 0-15h129.237a7.5 7.5 0 0 1 0 15zm-82.626 90h-46.611a7.5 7.5 0 1 1 0-15h46.611a7.5 7.5 0 1 1 0 15zm208.262 90H144.627a7.5 7.5 0 1 1 0-15H399.5a7.5 7.5 0 0 1 0 15z"></path>
  <rect width="45" height="45" x="52.5" y="142.497" fill="#dedede" rx="7"></rect>
  <rect width="45" height="45" x="52.5" y="232.497" fill="#dedede" rx="7"></rect>
  <path fill="#dedede" d="m335.525 299.317 23.794-23.794 52.82 52.821-23.793 23.794z"></path>
  <path fill="#dedede" d="M481.616 421.613a26.919 26.919 0 0 1-38.07 0l-67.096-67.097a3.365 3.365 0 0 1 0-4.758l33.31-33.31a3.365 3.365 0 0 1 4.759 0l67.097 67.096a26.919 26.919 0 0 1 0 38.069Z"></path>
  <circle cx="297.082" cy="237.079" r="108.271" fill="#dedede"></circle>
  <rect width="45" height="45" x="52.5" y="322.497" fill="#dedede" rx="7"></rect>
  <rect width="45" height="45" x="52.5" y="412.497" fill="#dedede" rx="7"></rect>
  <path fill="#595f74" d="m320.525 299.317 23.794-23.794 52.82 52.821-23.793 23.794z"></path>
  <path fill="#4a4f60" d="m344.319 275.523-7.5 7.5 25.573 25.574a19.069 19.069 0 0 1 0 26.967l-2.809 2.81 13.763 13.763 23.794-23.793Z"></path>
  <path fill="#ffcd85" d="M466.616 421.613a26.919 26.919 0 0 1-38.07 0l-67.096-67.097a3.365 3.365 0 0 1 0-4.758l33.31-33.31a3.365 3.365 0 0 1 4.759 0l67.097 67.096a26.919 26.919 0 0 1 0 38.069Z"></path>
  <path fill="#ffc166" d="m466.616 383.544-67.097-67.097a3.365 3.365 0 0 0-4.759 0l-5.12 5.12 61.976 61.977a26.919 26.919 0 0 1 0 38.069 26.794 26.794 0 0 1-11.535 6.82 26.91 26.91 0 0 0 26.535-6.82 26.919 26.919 0 0 0 0-38.069Z"></path>
  <circle cx="282.082" cy="237.079" r="108.271" fill="#676e87"></circle>
  <path fill="#595f74" d="M358.641 160.52a108.015 108.015 0 0 0-84.059-31.45 108.27 108.27 0 0 1 0 216.02 108.27 108.27 0 0 0 84.06-184.57Z"></path>
  <path fill="#d9f0ff" d="M337.59 292.59a78.503 78.503 0 1 1 0-111.02 78.589 78.589 0 0 1 0 111.02Z"></path>
  <path fill="#b3e0ff" d="M288.74 240a7.503 7.503 0 0 1-7.5 7.5h-76.61a1.825 1.825 0 0 1-.33-.02 79.191 79.191 0 0 1-.56-14.92 6.538 6.538 0 0 1 .89-.06h76.61a7.496 7.496 0 0 1 7.5 7.5zm0-45a7.503 7.503 0 0 1-7.5 7.5h-69.65a78.07 78.07 0 0 1 9.62-15h60.03a7.496 7.496 0 0 1 7.5 7.5z"></path>
</svg>
