<svg xmlns="http://www.w3.org/2000/svg" viewBox="0 0 48 48" id="tag">
  <path fill="#e7f0f3" d="M20 12c0 1.7-1.3 3-3 3s-3-1.3-3-3v-1c0-4.4 3.6-8 8-8h4c4.4 0 8 3.6 8 8v32c0 1.1-.9 2-2 2H16c-1.1 0-2-.9-2-2V22c0-1.7 1.3-3 3-3s3 1.3 3 3 1.4 3 3 3 3-1.3 3-3V12c0-1.6-1.3-3-3-3-1.6 0-3 1.4-3 3z"></path>
  <circle cx="24" cy="35" r="6" fill="#bd4243"></circle>
  <path fill="#060707" d="M26 2h-4c-5 0-9 4-9 9v1c0 2.2 1.8 4 4 4s4-1.8 4-4c0-1.1.9-2 2-2s2 .9 2 2v10c0 1.1-.9 2-2 2s-2-.9-2-2c0-2.2-1.8-4-4-4s-4 1.8-4 4v21c0 1.7 1.3 3 3 3h16c1.7 0 3-1.3 3-3V11c0-5-4-9-9-9zm7 41c0 .6-.4 1-1 1H16c-.6 0-1-.4-1-1V22c0-1.1.9-2 2-2s2 .9 2 2c0 2.2 1.8 4 4 4s4-1.8 4-4V12c0-2.2-1.8-4-4-4s-4 1.8-4 4c0 1.1-.9 2-2 2s-2-.9-2-2v-1c0-3.9 3.1-7 7-7h4c3.9 0 7 3.1 7 7v32z"></path>
  <path fill="#060707" d="M28.9 30.1c0-.1 0-.1 0 0-1.3-1.3-3-2.1-4.9-2.1-3.9 0-7 3.1-7 7 0 1.9.8 3.7 2 4.9 1.3 1.3 3 2 4.9 2 3.9 0 7-3.1 7-7 .1-1.8-.7-3.6-2-4.8.1 0 .1 0 0 0zM24 30c1 0 2 .3 2.8.8l-6.9 6.9C19.3 37 19 36 19 35c0-2.8 2.2-5 5-5zm0 10c-1 0-2-.3-2.8-.8l6.9-6.9c.6.7.9 1.7.9 2.7 0 2.8-2.2 5-5 5z"></path>
</svg>
