<svg xmlns="http://www.w3.org/2000/svg" enable-background="new 0 0 32 32" viewBox="0 0 32 32" id="view">
  <g id="view">
    <path fill="#f98a17" d="M16,10.006c-3.305,0-5.994,2.689-5.994,5.994s2.689,5.994,5.994,5.994s5.994-2.689,5.994-5.994
		S19.305,10.006,16,10.006z M16,20.193c-2.313,0-4.193-1.881-4.193-4.193s1.881-4.193,4.193-4.193c2.312,0,4.193,1.881,4.193,4.193
		S18.312,20.193,16,20.193z"></path>
    <path fill="#6621ba" d="M30.488,14.813C28.865,12.747,23.027,6.008,16,6.008c-7.028,0-12.867,6.74-14.488,8.806
		c-0.55,0.698-0.55,1.675-0.001,2.372C3.133,19.252,8.972,25.992,16,25.992s12.867-6.74,14.488-8.806
		C31.038,16.488,31.038,15.512,30.488,14.813z M29.073,16.074c-1.495,1.904-6.857,8.117-13.073,8.117S4.422,17.979,2.926,16.073
		c-0.035-0.045-0.035-0.102,0.001-0.147C4.422,14.021,9.784,7.809,16,7.809s11.578,6.213,13.073,8.117l0.001,0.001
		C29.109,15.972,29.109,16.028,29.073,16.074z"></path>
  </g>
</svg>
